<svg width="123" height="41" viewBox="0 0 123 41" fill="none" xmlns="http://www.w3.org/2000/svg">
<path d="M1.25197 20.2764C15.9138 9.57686 32.7028 1.66837 51.0588 0.612848C64.4392 -0.151731 77.6951 3.26205 89.5229 9.47735C98.0151 13.9378 105.726 19.8957 112.512 26.6628C114.101 28.246 115.678 29.8867 117.171 31.5928C115.806 25.5132 114.419 19.4242 113.406 13.2975C113.039 11.0722 116.471 10.3526 116.84 12.5953C118.251 21.1289 120.391 29.5987 122.183 38.0623C122.474 39.4238 121.19 40.3913 119.938 40.0841C111.214 37.9534 102.488 35.8218 93.7606 33.6873C91.5547 33.149 92.6362 29.8134 94.8196 30.3459C101.868 32.068 108.912 33.7899 115.962 35.5139C107.386 24.6149 95.2488 15.5877 82.7992 10.0845C71.9279 5.27981 59.9998 3.1915 48.175 4.32718C31.8371 5.89807 16.6989 13.3324 3.60604 22.8909C1.79941 24.2061 -0.56998 21.6072 1.25197 20.2764Z" fill="white"/>
</svg>