<svg width="123" height="41" viewBox="0 0 123 41" fill="none" xmlns="http://www.w3.org/2000/svg">
<path d="M1.25209 20.7118C15.9139 31.4114 32.7029 39.3199 51.0589 40.3754C64.4393 41.14 77.6952 37.7262 89.5231 31.5109C98.0153 27.0505 105.726 21.0925 112.512 14.3255C114.101 12.7423 115.678 11.1015 117.172 9.39545C115.806 15.4751 114.419 21.5641 113.406 27.6908C113.039 29.9161 116.471 30.6356 116.84 28.393C118.251 19.8594 120.391 11.3896 122.183 2.92603C122.474 1.56451 121.19 0.596931 119.938 0.904204C111.214 3.03484 102.488 5.16652 93.7607 7.30098C91.5549 7.83931 92.6363 11.1749 94.8198 10.6424C101.868 8.92026 108.913 7.19836 115.963 5.47435C107.386 16.3734 95.2489 25.4005 82.7993 30.9038C71.928 35.7085 59.9999 37.7968 48.1751 36.6611C31.8372 35.0902 16.699 27.6559 3.60616 18.0974C1.79953 16.7821 -0.569858 19.3811 1.25209 20.7118Z" fill="white"/>
</svg>