<svg width="18" height="14" viewBox="0 0 18 14" fill="none" xmlns="http://www.w3.org/2000/svg">
<path d="M17.6496 3.17411C17.6496 3.45312 17.5379 3.73214 17.3371 3.93304L9.2567 12.0134L7.73884 13.5312C7.53795 13.7321 7.25893 13.8438 6.97991 13.8438C6.70089 13.8438 6.42188 13.7321 6.22098 13.5312L4.70312 12.0134L0.662946 7.97321C0.462054 7.77232 0.350446 7.4933 0.350446 7.21429C0.350446 6.93527 0.462054 6.65625 0.662946 6.45536L2.1808 4.9375C2.3817 4.73661 2.66071 4.625 2.93973 4.625C3.21875 4.625 3.49777 4.73661 3.69866 4.9375L6.97991 8.22991L14.3013 0.897321C14.5022 0.696428 14.7813 0.584821 15.0603 0.584821C15.3393 0.584821 15.6183 0.696428 15.8192 0.897321L17.3371 2.41518C17.5379 2.61607 17.6496 2.89509 17.6496 3.17411Z" fill="#04BD17"/>
</svg>
