<svg width="127" height="38" viewBox="0 0 127 38" fill="none" xmlns="http://www.w3.org/2000/svg">
    <path d="M83.3201 2.65662C83.597 5.4048 82.6979 8.24063 80.8551 10.4396C80.8259 10.4757 80.8159 10.5232 80.8292 10.5673C81.7975 13.7116 80.563 17.4003 77.8271 19.5371L76.8023 20.5419C76.7743 20.5693 76.7597 20.6075 76.7617 20.6469C76.9181 23.3677 75.468 26.0483 73.0669 27.4752L71.5669 28.3663C71.5362 28.3851 71.5129 28.4158 71.5043 28.4513C71.4957 28.4861 71.5016 28.5235 71.5203 28.5543L71.5236 28.5597L71.5848 28.6587H71.5822L76.3697 36.7942C76.4156 36.8724 76.4403 36.9634 76.4403 37.0551C76.4403 37.326 76.2313 37.5495 75.9744 37.5535L73.59 37.5568C73.3364 37.5568 73.1041 37.4217 72.9697 37.1956L72.1498 35.8014C72.1478 35.7981 72.1458 35.794 72.1445 35.79L70.1008 32.3234C70.0722 32.2745 70.0176 32.2511 69.963 32.2632C67.7942 32.7783 65.5814 33.0398 63.3873 33.0398C61.1413 33.0398 58.8812 32.7676 56.6685 32.2297C56.6172 32.2177 56.5573 32.2437 56.5294 32.2912L53.6984 37.1942C53.5626 37.421 53.331 37.5561 53.0775 37.5561H53.0502L50.6464 37.5528C50.3882 37.5495 50.1793 37.3253 50.1793 37.0544C50.1793 36.9628 50.2039 36.8724 50.2491 36.7942L51.5042 34.6661C51.5069 34.6615 51.5096 34.6574 51.5129 34.6541L55.0147 28.658H55.0054L55.0693 28.5543C55.0886 28.5235 55.0946 28.4854 55.0859 28.4506C55.0773 28.4145 55.0546 28.3837 55.0234 28.3657L53.5234 27.4746C51.1223 26.047 49.6721 23.367 49.8292 20.6463C49.8312 20.6068 49.8166 20.5687 49.7886 20.5412L48.7637 19.5364C46.0279 17.4003 44.7934 13.7116 45.7617 10.5667C45.775 10.5225 45.7657 10.4744 45.7358 10.4389C43.893 8.23996 42.9946 5.40414 43.2714 2.65595C43.3466 2.14552 43.5616 1.22968 44.1592 0.830295C44.2391 0.782128 44.3129 0.742659 44.3841 0.710547C44.5465 0.636959 44.7176 0.601503 44.8932 0.608862C44.9179 0.6102 44.9405 0.622241 44.9545 0.64298C46.0113 2.17094 48.0497 4.53914 51.7618 7.14951C53.6438 8.47343 55.1026 9.36519 56.3218 10.0977C56.3284 10.1011 56.6512 10.2951 56.6512 10.2951C57.0025 10.5058 57.3213 10.6971 57.6215 10.8818C58.1585 11.2377 58.6337 11.6016 59.0576 11.9608C60.0565 12.8385 62.1634 15.0288 62.4769 18.1228C62.4769 18.1228 62.8363 20.582 61.2464 23.834L58.3801 29.1082C58.3582 29.1464 58.3548 29.1939 58.3721 29.2347C58.3894 29.2755 58.4247 29.3049 58.4666 29.3129C60.1017 29.6253 61.7575 29.7832 63.3873 29.7832C64.9618 29.7832 66.563 29.6354 68.1456 29.3437C68.1875 29.3357 68.2234 29.3069 68.2407 29.2654C68.258 29.2246 68.2554 29.1771 68.2327 29.139L68.077 28.8533L68.075 28.85L67.1819 27.211H67.1833L65.3112 23.7711C63.7566 20.5513 64.1107 18.1235 64.1107 18.1235C64.4161 15.1104 66.4219 12.955 67.4495 12.0331C67.8933 11.6504 68.3978 11.2618 68.9701 10.8824C69.246 10.7121 69.5377 10.5372 69.8559 10.3464L70.2698 10.0984C71.489 9.36586 72.9478 8.47343 74.8298 7.15018C78.5419 4.53981 80.5803 2.17094 81.6371 0.643649C81.6511 0.62291 81.6737 0.6102 81.6983 0.609531C81.874 0.602841 82.045 0.637628 82.2074 0.711216C82.2786 0.743328 82.3525 0.782797 82.4324 0.830964C83.03 1.23035 83.2449 2.14619 83.3201 2.65662Z" fill="#0030B9"/>
    <path d="M37.4038 24.3511C39.4648 24.4662 42.0243 24.6093 44.1678 25.3519C47.8101 26.6143 48.6153 29.0567 48.6499 30.8824C48.6825 32.5957 48.0663 34.0975 46.8691 35.2268C44.5265 37.4351 40.7678 37.5642 40.0384 37.5676C39.902 37.5756 39.6032 37.5883 39.176 37.5883C37.5342 37.5883 33.3336 37.3796 29.7845 35.4462L29.1057 35.0448C28.8908 34.9197 28.7563 34.6876 28.7563 34.4394C28.7563 34.3277 28.7843 34.218 28.8402 34.1129L29.6973 32.492C29.8191 32.2639 30.0547 32.122 30.3123 32.122C30.4314 32.122 30.5498 32.1535 30.655 32.2123L31.5268 32.6947C35.1345 34.6541 39.7717 34.382 39.865 34.3766L39.8661 34.3765C39.91 34.3732 39.9586 34.3705 40.0105 34.3725C40.8297 34.3725 43.2281 34.1216 44.4367 32.9743C44.9884 32.4505 45.2373 31.8036 45.2213 30.9379C45.174 28.4406 42.4841 27.8345 37.2021 27.5395L37.1762 27.5382L37.1372 27.536C36.6068 27.506 36.116 27.4784 35.6595 27.4418C29.9143 26.9822 29.0724 23.7898 29.0824 21.9281C29.0904 20.384 29.8531 16.7274 36.7449 16.1246C38.1791 15.9988 39.6591 16.0785 41.1438 16.3614C41.3055 16.3929 41.432 16.4183 41.5205 16.4377L42.2579 16.6156C42.5706 16.6932 42.7889 16.9729 42.7889 17.296C42.7889 17.3549 42.7816 17.4111 42.767 17.4699L42.3424 19.2354C42.2585 19.5411 41.9817 19.7532 41.6682 19.7532C41.6183 19.7532 41.5684 19.7472 41.5145 19.7351L40.69 19.5478C40.6053 19.5286 40.5017 19.5066 40.4216 19.4895L40.4205 19.4893L40.3592 19.4762C39.2418 19.2702 38.1338 19.2133 37.0657 19.3063C34.9933 19.4876 32.5217 20.0924 32.5117 21.9448C32.5077 22.6572 32.5017 23.9832 35.953 24.2595C36.3822 24.2936 36.8787 24.3217 37.4038 24.3511Z" fill="#0030B9"/>
    <path fill-rule="evenodd" clip-rule="evenodd" d="M105.047 36.8142L93.4163 17.0511C93.1547 16.5895 92.5791 16.2912 91.9489 16.2912C91.3426 16.2912 90.7796 16.5835 90.4788 17.0558L80.189 34.6748C80.1856 34.6781 80.183 34.6822 80.1803 34.6868L78.9252 36.8149C78.88 36.8932 78.856 36.9835 78.856 37.0751C78.856 37.3461 79.065 37.5702 79.3232 37.5742L81.7269 37.5775H81.7542C82.0078 37.5775 82.2393 37.4424 82.3751 37.2156L85.2061 32.3126C85.2341 32.2651 85.294 32.239 85.3452 32.2511C87.5573 32.7889 89.818 33.0612 92.064 33.0612C94.2581 33.0612 96.4709 32.7996 98.6397 32.2845C98.6943 32.2725 98.7489 32.2959 98.7775 32.3447L100.821 35.8114C100.823 35.8154 100.825 35.8194 100.827 35.8228L101.646 37.2169C101.781 37.4431 102.013 37.5782 102.267 37.5782L104.651 37.5748C104.908 37.5708 105.117 37.3474 105.117 37.0758C105.118 36.9835 105.093 36.8938 105.047 36.8142ZM96.8216 29.3631C95.2391 29.6548 93.6379 29.8026 92.0633 29.8026C90.4335 29.8026 88.7778 29.6447 87.1427 29.3323C87.1008 29.3243 87.0655 29.2948 87.0482 29.254C87.0309 29.2132 87.0335 29.1657 87.0562 29.1276L91.8404 20.9178C91.8637 20.8784 91.9056 20.8536 91.9495 20.8529C91.9948 20.8529 92.0354 20.877 92.0593 20.9172L96.9088 29.1577C96.9314 29.1958 96.9347 29.2433 96.9168 29.2841C96.8995 29.3263 96.8635 29.3557 96.8216 29.3631Z" fill="#0030B9"/>
    <path fill-rule="evenodd" clip-rule="evenodd" d="M26.7865 36.8142L15.1557 17.0518C14.8942 16.5902 14.3185 16.2918 13.6883 16.2918C13.082 16.2918 12.519 16.5842 12.2182 17.0565L1.92837 34.6755C1.92505 34.6788 1.92239 34.6829 1.91972 34.6875L0.664603 36.8149C0.61935 36.8932 0.594727 36.9835 0.594727 37.0752C0.594727 37.3461 0.803691 37.5702 1.0619 37.5742L3.46566 37.5776H3.49295C3.7465 37.5776 3.97809 37.4424 4.11385 37.2156L6.94486 32.3127C6.97281 32.2652 7.0327 32.2391 7.08395 32.2511C9.29605 32.789 11.5567 33.0612 13.8028 33.0612C15.9969 33.0612 18.2097 32.7997 20.3785 32.2846C20.4331 32.2725 20.4876 32.2959 20.5163 32.3448L22.56 35.8114C22.5606 35.8133 22.5614 35.8152 22.5623 35.8171C22.5632 35.8191 22.5643 35.8211 22.5653 35.8228L23.3852 37.217C23.5196 37.4431 23.7519 37.5782 24.0054 37.5782L26.3899 37.5749C26.6468 37.5709 26.8557 37.3474 26.8557 37.0758C26.8564 36.9835 26.8324 36.8939 26.7865 36.8142ZM18.5604 29.3631C16.9778 29.6548 15.3767 29.8026 13.8021 29.8026C12.1723 29.8026 10.5166 29.6448 8.88144 29.3323C8.83952 29.3243 8.80425 29.2949 8.78694 29.2541C8.76964 29.2133 8.7723 29.1658 8.79493 29.1276L13.5792 20.9179C13.6025 20.8784 13.6444 20.8536 13.6883 20.853C13.7336 20.853 13.7741 20.8771 13.7981 20.9172L18.6476 29.1577C18.6702 29.1959 18.6735 29.2434 18.6555 29.2842C18.6382 29.3263 18.603 29.3557 18.5604 29.3631Z" fill="#0030B9"/>
    <path d="M122.124 25.3519C119.981 24.6093 117.421 24.4662 115.36 24.3511C114.835 24.3217 114.339 24.2936 113.909 24.2595C110.458 23.9832 110.464 22.6572 110.468 21.9448C110.478 20.0924 112.95 19.4876 115.022 19.3063C116.09 19.2133 117.198 19.2702 118.315 19.4762C118.396 19.4936 118.537 19.5231 118.646 19.5478L119.47 19.7351C119.524 19.7472 119.574 19.7532 119.624 19.7532C119.938 19.7532 120.214 19.5411 120.298 19.2354L120.723 17.4699C120.737 17.4111 120.745 17.3549 120.745 17.296C120.745 16.9729 120.526 16.6932 120.214 16.6156L119.476 16.4377C119.388 16.4183 119.261 16.3929 119.1 16.3614C117.615 16.0785 116.135 15.9988 114.701 16.1246C107.809 16.7274 107.046 20.384 107.038 21.9281C107.028 23.7898 107.87 26.9822 113.615 27.4418C114.074 27.4785 114.565 27.5062 115.098 27.5362L115.132 27.5382L115.158 27.5395C120.44 27.8345 123.13 28.4406 123.177 30.9379C123.193 31.8036 122.944 32.4505 122.393 32.9743C121.184 34.1216 118.786 34.3725 117.966 34.3725C117.915 34.3705 117.866 34.3732 117.822 34.3765L117.821 34.3766C117.727 34.382 113.09 34.6541 109.483 32.6947L108.611 32.2123C108.506 32.1535 108.387 32.122 108.268 32.122C108.011 32.122 107.775 32.2639 107.653 32.492L106.796 34.1129C106.74 34.218 106.712 34.3277 106.712 34.4394C106.712 34.6876 106.847 34.9197 107.062 35.0448L107.74 35.4462C111.289 37.3796 115.49 37.5883 117.132 37.5883C117.559 37.5883 117.858 37.5756 117.994 37.5676C118.724 37.5642 122.482 37.4351 124.825 35.2268C126.022 34.0975 126.638 32.5957 126.606 30.8824C126.572 29.0567 125.767 26.6143 122.124 25.3519Z" fill="#0030B9"/>
</svg>
